<svg xmlns="http://www.w3.org/2000/svg" viewBox="0 0 512 512" width="512" height="512" shape-rendering="geometricPrecision">
<defs>
<linearGradient id="bg" x1="0" y1="0" x2="1" y2="1"><stop offset="0" stop-color="#2b1e4d"/><stop offset="1" stop-color="#0a0713"/></linearGradient>
<linearGradient id="body" x1="0" y1="0" x2="1" y2="1"><stop offset="0" stop-color="#fecdd3"/><stop offset=".5" stop-color="#fb7185"/><stop offset="1" stop-color="#e11d48"/></linearGradient>
<linearGradient id="hill" x1="0" y1="0" x2="0" y2="1"><stop offset="0" stop-color="#2b1e4d"/><stop offset="1" stop-color="#0a0713"/></linearGradient>
<clipPath id="box"><rect x="96" y="128" width="320" height="320" rx="80"/></clipPath>
<filter id="glow" x="-20%" y="-20%" width="140%" height="140%"><feGaussianBlur stdDeviation="18"/></filter>
</defs>
<rect width="512" height="512" fill="url(#bg)"/>
<path d="M175.50830740982394 283.75743991782826L181.2057783915442 294.33845745530874L191.78679592902463 300.035928437029L181.2057783915442 305.73339941874923L175.50830740982394 316.3144169562297L169.8108364281037 305.73339941874923L159.22981889062325 300.035928437029L169.8108364281037 294.33845745530874Z" fill="rgba(255,255,255,.45)"/><path d="M244.74016125564 62.607104369114865L247.4602233450767 67.6586482494973L252.51176722545915 70.37871033893401L247.4602233450767 73.09877242837072L244.74016125564 78.15031630875316L242.0200991662033 73.09877242837072L236.96855528582086 70.37871033893401L242.0200991662033 67.6586482494973Z" fill="rgba(255,255,255,.45)"/><path d="M320.64153994308816 229.03894540877985L324.78708625121203 236.73781712386705L332.4859579662992 240.88336343199092L324.78708625121203 245.02890974011478L320.64153994308816 252.72778145520198L316.4959936349643 245.02890974011478L308.7971219198771 240.88336343199092L316.4959936349643 236.73781712386705Z" fill="rgba(255,255,255,.45)"/><path d="M203.0266291864744 420.33591452621295L208.1620651299744 429.87315270699867L217.69930331076014 435.00858865049867L208.1620651299744 440.14402459399867L203.0266291864744 449.6812627747844L197.8911932429744 440.14402459399867L188.35395506218865 435.00858865049867L197.8911932429744 429.87315270699867Z" fill="rgba(255,255,255,.45)"/><path d="M212.0863006604105 22.437182407462316L217.34360536850141 32.200748293916874L227.10717125495597 37.45805300200779L217.34360536850141 42.7153577100987L212.0863006604105 52.47892359655326L206.8289959523196 42.7153577100987L197.06543006586503 37.45805300200779L206.8289959523196 32.200748293916874Z" fill="rgba(255,255,255,.45)"/><path d="M82.91064762717826 69.52930502629124L86.44752714185685 76.09779555355146L93.01601766911708 79.63467506823005L86.44752714185685 83.17155458290864L82.91064762717826 89.74004511016886L79.37376811249968 83.17155458290864L72.80527758523945 79.63467506823005L79.37376811249968 76.09779555355146Z" fill="rgba(255,255,255,.45)"/><path d="M60.42710736636703 420.80501211546476L65.9654252757005 431.0904596613698L76.2508728216055 436.6287775707032L65.9654252757005 442.16709548003666L60.42710736636703 452.4525430259417L54.88878945703357 442.16709548003666L44.60334191112857 436.6287775707032L54.88878945703357 431.0904596613698Z" fill="rgba(255,255,255,.45)"/><path d="M409.41460001734424 236.74761929380418L413.25065387495573 243.8717193150827L420.37475389623427 247.7077731726942L413.25065387495573 251.54382703030572L409.41460001734424 258.66792705158423L405.57854615973275 251.54382703030572L398.4544461384542 247.7077731726942L405.57854615973275 243.8717193150827Z" fill="rgba(255,255,255,.45)"/><path d="M152.35292680802593 112.76710521633902L155.51006463989853 118.6303611898167L161.3733206133762 121.78749902168929L155.51006463989853 124.94463685356187L152.35292680802593 130.80789282703955L149.19578897615332 124.94463685356187L143.33253300267566 121.78749902168929L149.19578897615332 118.6303611898167Z" fill="rgba(255,255,255,.45)"/><path d="M93.49703318334582 259.0054016017833L95.83703179320717 263.35111330581157L100.18274349723542 265.69111191567293L95.83703179320717 268.0311105255343L93.49703318334582 272.37682222956255L91.15703457348447 268.0311105255343L86.81132286945622 265.69111191567293L91.15703457348447 263.35111330581157Z" fill="rgba(255,255,255,.45)"/><path d="M178.59868998653226 20.292460635372542L184.58900944597298 31.41733963147675L195.7138884420772 37.40765909091748L184.58900944597298 43.397978550358204L178.59868998653226 54.52285754646241L172.60837052709155 43.397978550358204L161.48349153098732 37.40765909091748L172.60837052709155 31.41733963147675Z" fill="rgba(255,255,255,.45)"/><path d="M256.4678378222668 313.51038422098156L260.29549605161776 320.6188923612048L267.404004191841 324.4465505905558L260.29549605161776 328.27420881990673L256.4678378222668 335.38271696013L252.64017959291584 328.27420881990673L245.53167145269262 324.4465505905558L252.64017959291584 320.6188923612048Z" fill="rgba(255,255,255,.45)"/>
<rect x="96" y="128" width="320" height="320" rx="80" fill="#fb7185" opacity=".55" filter="url(#glow)"/>
<rect x="96" y="128" width="320" height="320" rx="80" fill="url(#body)"/>
<g clip-path="url(#box)"><path d="M80 388 C 120 268, 205 193, 320 198 C 380 203, 420 238, 435 278 L435 468 L80 468 Z" fill="url(#hill)"/></g>
<rect x="168" y="240" width="64" height="52" rx="24" fill="#fff"/><circle cx="200" cy="278" r="10" fill="#0a0713"/><rect x="280" y="240" width="64" height="52" rx="24" fill="#fff"/><circle cx="312" cy="278" r="10" fill="#0a0713"/>
<path d="M136 150 Q256 40 376 150 Z" fill="#16a34a"/><rect x="120" y="140" width="272" height="22" rx="11" fill="#14532d"/><rect x="300" y="146" width="150" height="16" rx="8" fill="#14532d"/><path d="M220 110 l14 -20 l14 20 l14 -20 l14 20" stroke="#fff" stroke-width="7" fill="none" stroke-linecap="round"/>
<rect x="440" y="150" width="12" height="300" rx="6" fill="#7c2d12"/><circle cx="446" cy="140" r="26" fill="#a855f7"/><circle cx="446" cy="140" r="14" fill="#f5d0fe"/>
<text x="256" y="490" text-anchor="middle" font-family="ui-monospace, Menlo, monospace" font-size="16" font-weight="700" fill="rgba(255,255,255,.7)" letter-spacing="2">PERPCAST MASCOT #28</text>
</svg>