<svg xmlns="http://www.w3.org/2000/svg" viewBox="0 0 512 512" width="512" height="512" shape-rendering="geometricPrecision">
<defs>
<linearGradient id="bg" x1="0" y1="0" x2="1" y2="1"><stop offset="0" stop-color="#5b1d1d"/><stop offset="1" stop-color="#1a0606"/></linearGradient>
<linearGradient id="body" x1="0" y1="0" x2="1" y2="1"><stop offset="0" stop-color="#c7b6ff"/><stop offset=".5" stop-color="#e9a8ff"/><stop offset="1" stop-color="#ffb08a"/></linearGradient>
<linearGradient id="hill" x1="0" y1="0" x2="0" y2="1"><stop offset="0" stop-color="#2b1e4d"/><stop offset="1" stop-color="#0a0713"/></linearGradient>
<clipPath id="box"><rect x="96" y="128" width="320" height="320" rx="80"/></clipPath>
<filter id="glow" x="-20%" y="-20%" width="140%" height="140%"><feGaussianBlur stdDeviation="18"/></filter>
</defs>
<rect width="512" height="512" fill="url(#bg)"/>
<rect x="101" y="457" width="4" height="4" fill="rgba(255,255,255,.16)"/><rect x="59" y="451" width="3" height="3" fill="rgba(255,255,255,.16)"/><rect x="439" y="85" width="4" height="4" fill="rgba(255,255,255,.16)"/><rect x="431" y="104" width="4" height="4" fill="rgba(255,255,255,.16)"/><rect x="256" y="304" width="4" height="4" fill="rgba(255,255,255,.16)"/><rect x="121" y="298" width="4" height="4" fill="rgba(255,255,255,.16)"/><rect x="80" y="476" width="5" height="5" fill="rgba(255,255,255,.16)"/><rect x="379" y="194" width="4" height="4" fill="rgba(255,255,255,.16)"/><rect x="10" y="228" width="3" height="3" fill="rgba(255,255,255,.16)"/><rect x="503" y="423" width="5" height="5" fill="rgba(255,255,255,.16)"/><rect x="144" y="293" width="5" height="5" fill="rgba(255,255,255,.16)"/><rect x="470" y="297" width="2" height="2" fill="rgba(255,255,255,.16)"/><rect x="175" y="167" width="3" height="3" fill="rgba(255,255,255,.16)"/><rect x="275" y="96" width="3" height="3" fill="rgba(255,255,255,.16)"/><rect x="39" y="507" width="2" height="2" fill="rgba(255,255,255,.16)"/><rect x="189" y="239" width="6" height="6" fill="rgba(255,255,255,.16)"/><rect x="96" y="187" width="3" height="3" fill="rgba(255,255,255,.16)"/><rect x="445" y="140" width="4" height="4" fill="rgba(255,255,255,.16)"/><rect x="171" y="256" width="6" height="6" fill="rgba(255,255,255,.16)"/><rect x="44" y="415" width="4" height="4" fill="rgba(255,255,255,.16)"/><rect x="161" y="366" width="5" height="5" fill="rgba(255,255,255,.16)"/><rect x="37" y="133" width="5" height="5" fill="rgba(255,255,255,.16)"/><rect x="468" y="372" width="3" height="3" fill="rgba(255,255,255,.16)"/><rect x="371" y="130" width="5" height="5" fill="rgba(255,255,255,.16)"/><rect x="212" y="268" width="5" height="5" fill="rgba(255,255,255,.16)"/><rect x="120" y="248" width="5" height="5" fill="rgba(255,255,255,.16)"/>
<rect x="96" y="128" width="320" height="320" rx="80" fill="#e9a8ff" opacity=".55" filter="url(#glow)"/>
<rect x="96" y="128" width="320" height="320" rx="80" fill="url(#body)"/>
<g clip-path="url(#box)"><path d="M80 388 C 120 268, 205 193, 320 198 C 380 203, 420 238, 435 278 L435 468 L80 468 Z" fill="url(#hill)"/></g>
<rect x="168" y="200" width="64" height="92" rx="28" fill="#fff"/><path transform="translate(200 250) scale(1.1)" d="M0 16 C-18 2 -20 -14 -8 -16 C-2 -17 0 -12 0 -10 C0 -12 2 -17 8 -16 C20 -14 18 2 0 16Z" fill="#fb7185"/><rect x="280" y="200" width="64" height="92" rx="28" fill="#fff"/><path transform="translate(312 250) scale(1.1)" d="M0 16 C-18 2 -20 -14 -8 -16 C-2 -17 0 -12 0 -10 C0 -12 2 -17 8 -16 C20 -14 18 2 0 16Z" fill="#fb7185"/>
<ellipse cx="256" cy="86" rx="120" ry="22" fill="none" stroke="#fde68a" stroke-width="12"/><ellipse cx="256" cy="86" rx="120" ry="22" fill="none" stroke="#fff7cc" stroke-width="4"/>
<g transform="translate(400 300) rotate(-35)"><rect x="-22" y="-70" width="44" height="120" rx="22" fill="#f1f5f9"/><circle cx="0" cy="-30" r="12" fill="#38bdf8"/><path d="M-22 20 L-46 60 L-22 50Z M22 20 L46 60 L22 50Z" fill="#ef4444"/><path d="M-12 50 L0 100 L12 50Z" fill="#fbbf24"/></g>
<text x="256" y="490" text-anchor="middle" font-family="ui-monospace, Menlo, monospace" font-size="16" font-weight="700" fill="rgba(255,255,255,.7)" letter-spacing="2">PERPCAST MASCOT #33</text>
</svg>