<svg xmlns="http://www.w3.org/2000/svg" viewBox="0 0 512 512" width="512" height="512" shape-rendering="geometricPrecision">
<defs>
<linearGradient id="bg" x1="0" y1="0" x2="1" y2="1"><stop offset="0" stop-color="#1b1140"/><stop offset="1" stop-color="#3b0f5f"/></linearGradient>
<linearGradient id="body" x1="0" y1="0" x2="1" y2="1"><stop offset="0" stop-color="#b7a4ff"/><stop offset=".5" stop-color="#8b5cf6"/><stop offset="1" stop-color="#6d28d9"/></linearGradient>
<linearGradient id="hill" x1="0" y1="0" x2="0" y2="1"><stop offset="0" stop-color="#2b1e4d"/><stop offset="1" stop-color="#0a0713"/></linearGradient>
<clipPath id="box"><rect x="96" y="128" width="320" height="320" rx="80"/></clipPath>
<filter id="glow" x="-20%" y="-20%" width="140%" height="140%"><feGaussianBlur stdDeviation="18"/></filter>
</defs>
<rect width="512" height="512" fill="url(#bg)"/>
<g fill="none" stroke="rgba(255,255,255,.16)" stroke-width="3"><ellipse cx="256" cy="256" rx="230" ry="90" transform="rotate(-20 256 256)"/><ellipse cx="256" cy="256" rx="230" ry="90" transform="rotate(35 256 256)"/></g>
<rect x="96" y="128" width="320" height="320" rx="80" fill="#8b5cf6" opacity=".55" filter="url(#glow)"/>
<rect x="96" y="128" width="320" height="320" rx="80" fill="url(#body)"/>
<g clip-path="url(#box)"><path d="M80 388 C 120 268, 205 193, 320 198 C 380 203, 420 238, 435 278 L435 468 L80 468 Z" fill="url(#hill)"/></g>
<rect x="168" y="200" width="64" height="92" rx="28" fill="#fff"/><circle cx="200" cy="260" r="12" fill="#0a0713"/><rect x="280" y="200" width="64" height="92" rx="28" fill="#fff"/><circle cx="312" cy="260" r="12" fill="#0a0713"/>
<path d="M200 150 L256 20 L312 150 Z" fill="#ec4899"/><path d="M220 150 L256 70 L292 150 Z" fill="#fbbf24"/><circle cx="256" cy="22" r="14" fill="#a3e635"/>
<rect x="436" y="170" width="8" height="90" fill="#78350f"/><rect x="404" y="250" width="72" height="96" rx="14" fill="#fbbf24"/><rect x="418" y="264" width="44" height="68" rx="8" fill="#fff7cc"/><rect x="396" y="340" width="88" height="14" rx="7" fill="#78350f"/>
<text x="256" y="490" text-anchor="middle" font-family="ui-monospace, Menlo, monospace" font-size="16" font-weight="700" fill="rgba(255,255,255,.7)" letter-spacing="2">PERPCAST MASCOT #45</text>
</svg>