<svg xmlns="http://www.w3.org/2000/svg" viewBox="0 0 512 512" width="512" height="512" shape-rendering="geometricPrecision">
<defs>
<linearGradient id="bg" x1="0" y1="0" x2="1" y2="1"><stop offset="0" stop-color="#dfe9ff"/><stop offset="1" stop-color="#8ea8ff"/></linearGradient>
<linearGradient id="body" x1="0" y1="0" x2="1" y2="1"><stop offset="0" stop-color="#a5f3fc"/><stop offset=".5" stop-color="#38bdf8"/><stop offset="1" stop-color="#2563eb"/></linearGradient>
<linearGradient id="hill" x1="0" y1="0" x2="0" y2="1"><stop offset="0" stop-color="#2b1e4d"/><stop offset="1" stop-color="#0a0713"/></linearGradient>
<clipPath id="box"><rect x="96" y="128" width="320" height="320" rx="80"/></clipPath>
<filter id="glow" x="-20%" y="-20%" width="140%" height="140%"><feGaussianBlur stdDeviation="18"/></filter>
</defs>
<rect width="512" height="512" fill="url(#bg)"/>
<g fill="none" stroke="rgba(0,0,0,.14)" stroke-width="3"><ellipse cx="256" cy="256" rx="230" ry="90" transform="rotate(-20 256 256)"/><ellipse cx="256" cy="256" rx="230" ry="90" transform="rotate(35 256 256)"/></g>
<rect x="96" y="128" width="320" height="320" rx="80" fill="#38bdf8" opacity=".55" filter="url(#glow)"/>
<rect x="96" y="128" width="320" height="320" rx="80" fill="url(#body)"/>
<g clip-path="url(#box)"><path d="M80 388 C 120 268, 205 193, 320 198 C 380 203, 420 238, 435 278 L435 468 L80 468 Z" fill="url(#hill)"/></g>
<rect x="168" y="200" width="64" height="92" rx="28" fill="#fff"/><path transform="translate(200 248)" d="M0 -22L6 -7L22 -6L10 4L14 20L0 11L-14 20L-10 4L-22 -6L-6 -7Z" fill="#fbbf24"/><rect x="280" y="200" width="64" height="92" rx="28" fill="#fff"/><path transform="translate(312 248)" d="M0 -22L6 -7L22 -6L10 4L14 20L0 11L-14 20L-10 4L-22 -6L-6 -7Z" fill="#fbbf24"/>
<path d="M120 160 Q256 20 392 160 Z" fill="#38bdf8"/><path d="M120 160 Q256 20 392 160 Z" fill="rgba(0,0,0,.35)"/><rect x="110" y="138" width="292" height="34" rx="17" fill="#f1f5f9"/><circle cx="256" cy="40" r="22" fill="#f1f5f9"/>
<rect x="440" y="150" width="12" height="300" rx="6" fill="#7c2d12"/><circle cx="446" cy="140" r="26" fill="#a855f7"/><circle cx="446" cy="140" r="14" fill="#f5d0fe"/>
<text x="256" y="490" text-anchor="middle" font-family="ui-monospace, Menlo, monospace" font-size="16" font-weight="700" fill="rgba(0,0,0,.55)" letter-spacing="2">PERPCAST MASCOT #53</text>
</svg>