<svg xmlns="http://www.w3.org/2000/svg" viewBox="0 0 512 512" width="512" height="512" shape-rendering="geometricPrecision">
<defs>
<linearGradient id="bg" x1="0" y1="0" x2="1" y2="1"><stop offset="0" stop-color="#1b3d2a"/><stop offset="1" stop-color="#06120b"/></linearGradient>
<linearGradient id="body" x1="0" y1="0" x2="1" y2="1"><stop offset="0" stop-color="#4b5563"/><stop offset=".5" stop-color="#1f2937"/><stop offset="1" stop-color="#030712"/></linearGradient>
<linearGradient id="hill" x1="0" y1="0" x2="0" y2="1"><stop offset="0" stop-color="#2b1e4d"/><stop offset="1" stop-color="#0a0713"/></linearGradient>
<clipPath id="box"><rect x="96" y="128" width="320" height="320" rx="80"/></clipPath>
<filter id="glow" x="-20%" y="-20%" width="140%" height="140%"><feGaussianBlur stdDeviation="18"/></filter>
</defs>
<rect width="512" height="512" fill="url(#bg)"/>
<rect x="430" y="464" width="4" height="4" fill="rgba(255,255,255,.16)"/><rect x="421" y="26" width="3" height="3" fill="rgba(255,255,255,.16)"/><rect x="316" y="282" width="4" height="4" fill="rgba(255,255,255,.16)"/><rect x="105" y="266" width="3" height="3" fill="rgba(255,255,255,.16)"/><rect x="62" y="469" width="6" height="6" fill="rgba(255,255,255,.16)"/><rect x="219" y="432" width="6" height="6" fill="rgba(255,255,255,.16)"/><rect x="243" y="350" width="5" height="5" fill="rgba(255,255,255,.16)"/><rect x="39" y="323" width="5" height="5" fill="rgba(255,255,255,.16)"/><rect x="413" y="276" width="6" height="6" fill="rgba(255,255,255,.16)"/><rect x="207" y="484" width="4" height="4" fill="rgba(255,255,255,.16)"/><rect x="132" y="3" width="4" height="4" fill="rgba(255,255,255,.16)"/><rect x="305" y="241" width="4" height="4" fill="rgba(255,255,255,.16)"/><rect x="275" y="109" width="3" height="3" fill="rgba(255,255,255,.16)"/><rect x="94" y="208" width="4" height="4" fill="rgba(255,255,255,.16)"/><rect x="42" y="339" width="3" height="3" fill="rgba(255,255,255,.16)"/><rect x="338" y="457" width="6" height="6" fill="rgba(255,255,255,.16)"/><rect x="313" y="172" width="4" height="4" fill="rgba(255,255,255,.16)"/><rect x="262" y="217" width="5" height="5" fill="rgba(255,255,255,.16)"/><rect x="196" y="79" width="3" height="3" fill="rgba(255,255,255,.16)"/><rect x="231" y="424" width="2" height="2" fill="rgba(255,255,255,.16)"/><rect x="199" y="281" width="3" height="3" fill="rgba(255,255,255,.16)"/><rect x="334" y="389" width="4" height="4" fill="rgba(255,255,255,.16)"/><rect x="230" y="180" width="4" height="4" fill="rgba(255,255,255,.16)"/><rect x="165" y="471" width="3" height="3" fill="rgba(255,255,255,.16)"/><rect x="394" y="211" width="3" height="3" fill="rgba(255,255,255,.16)"/><rect x="506" y="17" width="2" height="2" fill="rgba(255,255,255,.16)"/>
<rect x="96" y="128" width="320" height="320" rx="80" fill="#1f2937" opacity=".55" filter="url(#glow)"/>
<rect x="96" y="128" width="320" height="320" rx="80" fill="url(#body)"/>
<g clip-path="url(#box)"><path d="M80 388 C 120 268, 205 193, 320 198 C 380 203, 420 238, 435 278 L435 468 L80 468 Z" fill="url(#hill)"/></g>
<rect x="168" y="240" width="64" height="52" rx="24" fill="#fff"/><circle cx="200" cy="278" r="10" fill="#0a0713"/><rect x="280" y="240" width="64" height="52" rx="24" fill="#fff"/><circle cx="312" cy="278" r="10" fill="#0a0713"/>

<rect x="440" y="150" width="12" height="300" rx="6" fill="#7c2d12"/><circle cx="446" cy="140" r="26" fill="#a855f7"/><circle cx="446" cy="140" r="14" fill="#f5d0fe"/>
<text x="256" y="490" text-anchor="middle" font-family="ui-monospace, Menlo, monospace" font-size="16" font-weight="700" fill="rgba(255,255,255,.7)" letter-spacing="2">PERPCAST MASCOT #54</text>
</svg>