<svg xmlns="http://www.w3.org/2000/svg" viewBox="0 0 512 512" width="512" height="512" shape-rendering="geometricPrecision">
<defs>
<linearGradient id="bg" x1="0" y1="0" x2="1" y2="1"><stop offset="0" stop-color="#1b3d2a"/><stop offset="1" stop-color="#06120b"/></linearGradient>
<linearGradient id="body" x1="0" y1="0" x2="1" y2="1"><stop offset="0" stop-color="#ffd1a6"/><stop offset=".5" stop-color="#ff9a62"/><stop offset="1" stop-color="#f4724a"/></linearGradient>
<linearGradient id="hill" x1="0" y1="0" x2="0" y2="1"><stop offset="0" stop-color="#2b1e4d"/><stop offset="1" stop-color="#0a0713"/></linearGradient>
<clipPath id="box"><rect x="96" y="128" width="320" height="320" rx="80"/></clipPath>
<filter id="glow" x="-20%" y="-20%" width="140%" height="140%"><feGaussianBlur stdDeviation="18"/></filter>
</defs>
<rect width="512" height="512" fill="url(#bg)"/>
<rect x="25" y="216.2168361854779" width="2" height="114.00948619097693" fill="rgba(52,211,153,.55)"/><rect x="16" y="234.2168361854779" width="20" height="78.00948619097693" rx="3" fill="rgba(52,211,153,.55)"/><rect x="67" y="219.81859490154747" width="2" height="141.0754514651083" fill="rgba(251,113,133,.55)"/><rect x="58" y="237.81859490154747" width="20" height="105.0754514651083" rx="3" fill="rgba(251,113,133,.55)"/><rect x="109" y="206.89430666200224" width="2" height="130.83462078609378" fill="rgba(52,211,153,.55)"/><rect x="100" y="224.89430666200224" width="20" height="94.83462078609378" rx="3" fill="rgba(52,211,153,.55)"/><rect x="151" y="259.27294040547525" width="2" height="86.29804830213497" fill="rgba(251,113,133,.55)"/><rect x="142" y="277.27294040547525" width="20" height="50.29804830213497" rx="3" fill="rgba(251,113,133,.55)"/><rect x="193" y="277.8104322643044" width="2" height="90.86387621258942" fill="rgba(251,113,133,.55)"/><rect x="184" y="295.8104322643044" width="20" height="54.86387621258941" rx="3" fill="rgba(251,113,133,.55)"/><rect x="235" y="299.61030842145215" width="2" height="119.68359111102382" fill="rgba(251,113,133,.55)"/><rect x="226" y="317.61030842145215" width="20" height="83.68359111102382" rx="3" fill="rgba(251,113,133,.55)"/><rect x="277" y="280.514989827181" width="2" height="127.95633344863455" fill="rgba(52,211,153,.55)"/><rect x="268" y="298.514989827181" width="20" height="91.95633344863455" rx="3" fill="rgba(52,211,153,.55)"/><rect x="319" y="257.4994183756643" width="2" height="127.27149516280542" fill="rgba(52,211,153,.55)"/><rect x="310" y="275.4994183756643" width="20" height="91.27149516280542" rx="3" fill="rgba(52,211,153,.55)"/><rect x="361" y="263.6688841224343" width="2" height="90.093505089193" fill="rgba(52,211,153,.55)"/><rect x="352" y="281.6688841224343" width="20" height="54.093505089193" rx="3" fill="rgba(52,211,153,.55)"/><rect x="403" y="231.48460410453492" width="2" height="102.93024097870342" fill="rgba(52,211,153,.55)"/><rect x="394" y="249.48460410453492" width="20" height="66.93024097870342" rx="3" fill="rgba(52,211,153,.55)"/><rect x="445" y="215.01587315695735" width="2" height="109.73831212141977" fill="rgba(52,211,153,.55)"/><rect x="436" y="233.01587315695735" width="20" height="73.73831212141977" rx="3" fill="rgba(52,211,153,.55)"/><rect x="487" y="223.126194612851" width="2" height="84.07191640792226" fill="rgba(52,211,153,.55)"/><rect x="478" y="241.126194612851" width="20" height="48.07191640792226" rx="3" fill="rgba(52,211,153,.55)"/>
<rect x="96" y="128" width="320" height="320" rx="80" fill="#ff9a62" opacity=".55" filter="url(#glow)"/>
<rect x="96" y="128" width="320" height="320" rx="80" fill="url(#body)"/>
<g clip-path="url(#box)"><path d="M80 388 C 120 268, 205 193, 320 198 C 380 203, 420 238, 435 278 L435 468 L80 468 Z" fill="url(#hill)"/></g>
<rect x="168" y="200" width="64" height="92" rx="28" fill="#fff"/><circle cx="200" cy="260" r="12" fill="#0a0713"/><rect x="280" y="200" width="64" height="92" rx="28" fill="#fff"/><circle cx="312" cy="260" r="12" fill="#0a0713"/>
<path d="M120 160 Q256 20 392 160 Z" fill="#ff9a62"/><path d="M120 160 Q256 20 392 160 Z" fill="rgba(0,0,0,.35)"/><rect x="110" y="138" width="292" height="34" rx="17" fill="#f1f5f9"/><circle cx="256" cy="40" r="22" fill="#f1f5f9"/>

<text x="256" y="490" text-anchor="middle" font-family="ui-monospace, Menlo, monospace" font-size="16" font-weight="700" fill="rgba(255,255,255,.7)" letter-spacing="2">PERPCAST MASCOT #68</text>
</svg>