<svg xmlns="http://www.w3.org/2000/svg" viewBox="0 0 512 512" width="512" height="512" shape-rendering="geometricPrecision">
<defs>
<linearGradient id="bg" x1="0" y1="0" x2="1" y2="1"><stop offset="0" stop-color="#5b1d1d"/><stop offset="1" stop-color="#1a0606"/></linearGradient>
<linearGradient id="body" x1="0" y1="0" x2="1" y2="1"><stop offset="0" stop-color="#b7a4ff"/><stop offset=".5" stop-color="#8b5cf6"/><stop offset="1" stop-color="#6d28d9"/></linearGradient>
<linearGradient id="hill" x1="0" y1="0" x2="0" y2="1"><stop offset="0" stop-color="#2b1e4d"/><stop offset="1" stop-color="#0a0713"/></linearGradient>
<clipPath id="box"><rect x="96" y="128" width="320" height="320" rx="80"/></clipPath>
<filter id="glow" x="-20%" y="-20%" width="140%" height="140%"><feGaussianBlur stdDeviation="18"/></filter>
</defs>
<rect width="512" height="512" fill="url(#bg)"/>
<rect x="149" y="498" width="2" height="2" fill="rgba(255,255,255,.16)"/><rect x="240" y="287" width="5" height="5" fill="rgba(255,255,255,.16)"/><rect x="466" y="233" width="5" height="5" fill="rgba(255,255,255,.16)"/><rect x="362" y="246" width="3" height="3" fill="rgba(255,255,255,.16)"/><rect x="306" y="92" width="5" height="5" fill="rgba(255,255,255,.16)"/><rect x="207" y="418" width="2" height="2" fill="rgba(255,255,255,.16)"/><rect x="381" y="428" width="4" height="4" fill="rgba(255,255,255,.16)"/><rect x="253" y="444" width="6" height="6" fill="rgba(255,255,255,.16)"/><rect x="396" y="317" width="5" height="5" fill="rgba(255,255,255,.16)"/><rect x="20" y="26" width="4" height="4" fill="rgba(255,255,255,.16)"/><rect x="148" y="353" width="3" height="3" fill="rgba(255,255,255,.16)"/><rect x="36" y="86" width="6" height="6" fill="rgba(255,255,255,.16)"/><rect x="332" y="370" width="4" height="4" fill="rgba(255,255,255,.16)"/><rect x="384" y="481" width="3" height="3" fill="rgba(255,255,255,.16)"/><rect x="186" y="339" width="5" height="5" fill="rgba(255,255,255,.16)"/><rect x="354" y="251" width="3" height="3" fill="rgba(255,255,255,.16)"/><rect x="379" y="257" width="6" height="6" fill="rgba(255,255,255,.16)"/><rect x="336" y="112" width="5" height="5" fill="rgba(255,255,255,.16)"/><rect x="262" y="449" width="2" height="2" fill="rgba(255,255,255,.16)"/><rect x="428" y="102" width="3" height="3" fill="rgba(255,255,255,.16)"/><rect x="362" y="237" width="2" height="2" fill="rgba(255,255,255,.16)"/><rect x="252" y="285" width="3" height="3" fill="rgba(255,255,255,.16)"/><rect x="11" y="297" width="2" height="2" fill="rgba(255,255,255,.16)"/><rect x="240" y="429" width="4" height="4" fill="rgba(255,255,255,.16)"/><rect x="47" y="433" width="4" height="4" fill="rgba(255,255,255,.16)"/><rect x="440" y="74" width="5" height="5" fill="rgba(255,255,255,.16)"/>
<rect x="96" y="128" width="320" height="320" rx="80" fill="#8b5cf6" opacity=".55" filter="url(#glow)"/>
<rect x="96" y="128" width="320" height="320" rx="80" fill="url(#body)"/>
<g clip-path="url(#box)"><path d="M80 388 C 120 268, 205 193, 320 198 C 380 203, 420 238, 435 278 L435 468 L80 468 Z" fill="url(#hill)"/></g>
<rect x="168" y="200" width="64" height="92" rx="28" fill="#fff"/><circle cx="200" cy="260" r="12" fill="#0a0713"/><rect x="280" y="200" width="64" height="92" rx="28" fill="#fff"/><circle cx="312" cy="260" r="12" fill="#0a0713"/>
<path d="M120 200 Q120 60 256 60 Q392 60 392 200" fill="none" stroke="#111827" stroke-width="18"/><rect x="92" y="180" width="52" height="90" rx="20" fill="#1f2937"/><rect x="368" y="180" width="52" height="90" rx="20" fill="#1f2937"/><rect x="104" y="196" width="28" height="58" rx="12" fill="#a78bfa"/><rect x="380" y="196" width="28" height="58" rx="12" fill="#a78bfa"/>
<rect x="440" y="150" width="12" height="300" rx="6" fill="#7c2d12"/><circle cx="446" cy="140" r="26" fill="#a855f7"/><circle cx="446" cy="140" r="14" fill="#f5d0fe"/>
<text x="256" y="490" text-anchor="middle" font-family="ui-monospace, Menlo, monospace" font-size="16" font-weight="700" fill="rgba(255,255,255,.7)" letter-spacing="2">PERPCAST MASCOT #81</text>
</svg>