<svg xmlns="http://www.w3.org/2000/svg" viewBox="0 0 512 512" width="512" height="512" shape-rendering="geometricPrecision">
<defs>
<linearGradient id="bg" x1="0" y1="0" x2="1" y2="1"><stop offset="0" stop-color="#f6c1de"/><stop offset="1" stop-color="#c46ba5"/></linearGradient>
<linearGradient id="body" x1="0" y1="0" x2="1" y2="1"><stop offset="0" stop-color="#a5f3fc"/><stop offset=".5" stop-color="#38bdf8"/><stop offset="1" stop-color="#2563eb"/></linearGradient>
<linearGradient id="hill" x1="0" y1="0" x2="0" y2="1"><stop offset="0" stop-color="#2b1e4d"/><stop offset="1" stop-color="#0a0713"/></linearGradient>
<clipPath id="box"><rect x="96" y="128" width="320" height="320" rx="80"/></clipPath>
<filter id="glow" x="-20%" y="-20%" width="140%" height="140%"><feGaussianBlur stdDeviation="18"/></filter>
</defs>
<rect width="512" height="512" fill="url(#bg)"/>
<rect x="194" y="424" width="3" height="3" fill="rgba(0,0,0,.14)"/><rect x="464" y="134" width="5" height="5" fill="rgba(0,0,0,.14)"/><rect x="169" y="266" width="4" height="4" fill="rgba(0,0,0,.14)"/><rect x="116" y="247" width="3" height="3" fill="rgba(0,0,0,.14)"/><rect x="158" y="401" width="5" height="5" fill="rgba(0,0,0,.14)"/><rect x="194" y="342" width="6" height="6" fill="rgba(0,0,0,.14)"/><rect x="46" y="289" width="6" height="6" fill="rgba(0,0,0,.14)"/><rect x="48" y="287" width="2" height="2" fill="rgba(0,0,0,.14)"/><rect x="73" y="133" width="5" height="5" fill="rgba(0,0,0,.14)"/><rect x="104" y="426" width="4" height="4" fill="rgba(0,0,0,.14)"/><rect x="112" y="143" width="3" height="3" fill="rgba(0,0,0,.14)"/><rect x="26" y="387" width="3" height="3" fill="rgba(0,0,0,.14)"/><rect x="270" y="16" width="4" height="4" fill="rgba(0,0,0,.14)"/><rect x="128" y="82" width="4" height="4" fill="rgba(0,0,0,.14)"/><rect x="96" y="388" width="4" height="4" fill="rgba(0,0,0,.14)"/><rect x="400" y="458" width="5" height="5" fill="rgba(0,0,0,.14)"/><rect x="212" y="134" width="5" height="5" fill="rgba(0,0,0,.14)"/><rect x="175" y="323" width="2" height="2" fill="rgba(0,0,0,.14)"/><rect x="262" y="295" width="6" height="6" fill="rgba(0,0,0,.14)"/><rect x="24" y="78" width="6" height="6" fill="rgba(0,0,0,.14)"/><rect x="121" y="342" width="3" height="3" fill="rgba(0,0,0,.14)"/><rect x="175" y="509" width="4" height="4" fill="rgba(0,0,0,.14)"/><rect x="462" y="37" width="2" height="2" fill="rgba(0,0,0,.14)"/><rect x="17" y="390" width="4" height="4" fill="rgba(0,0,0,.14)"/><rect x="391" y="319" width="6" height="6" fill="rgba(0,0,0,.14)"/><rect x="56" y="76" width="5" height="5" fill="rgba(0,0,0,.14)"/>
<rect x="96" y="128" width="320" height="320" rx="80" fill="#38bdf8" opacity=".55" filter="url(#glow)"/>
<rect x="96" y="128" width="320" height="320" rx="80" fill="url(#body)"/>
<g clip-path="url(#box)"><path d="M80 388 C 120 268, 205 193, 320 198 C 380 203, 420 238, 435 278 L435 468 L80 468 Z" fill="url(#hill)"/></g>
<rect x="168" y="200" width="64" height="92" rx="28" fill="#fff"/><circle cx="200" cy="260" r="12" fill="#0a0713"/><rect x="280" y="200" width="64" height="92" rx="28" fill="#fff"/><circle cx="312" cy="260" r="12" fill="#0a0713"/>
<path d="M136 150 Q256 40 376 150 Z" fill="#16a34a"/><rect x="120" y="140" width="272" height="22" rx="11" fill="#14532d"/><rect x="300" y="146" width="150" height="16" rx="8" fill="#14532d"/><path d="M220 110 l14 -20 l14 20 l14 -20 l14 20" stroke="#fff" stroke-width="7" fill="none" stroke-linecap="round"/>

<text x="256" y="490" text-anchor="middle" font-family="ui-monospace, Menlo, monospace" font-size="16" font-weight="700" fill="rgba(0,0,0,.55)" letter-spacing="2">PERPCAST MASCOT #93</text>
</svg>